Motion_sv05_j
version=1
nRows=5
nColumns=43
inDegrees=yes
endheader
time	pelvis_tilt	pelvis_list	pelvis_rotation	pelvis_tx	pelvis_ty	pelvis_tz	hip_flexion_r	hip_adduction_r	hip_rotation_r	knee_angle_r	ankle_angle_r	subtalar_angle_r	mtp_angle_r	hip_flexion_l	hip_adduction_l	hip_rotation_l	knee_angle_l	ankle_angle_l	subtalar_angle_l	mtp_angle_l	lumbar_extension	lumbar_bending	lumbar_rotation	neck_flexion	neck_lateral_bending	neck_rotation	arm_flex_r	arm_add_r	arm_rot_r	elbow_flex_r	pro_sup_r	wrist_flex_r	wrist_dev_r	hand_finger_flex_r	arm_flex_l	arm_add_l	arm_rot_l	elbow_flex_l	pro_sup_l	wrist_flex_l	wrist_dev_l	hand_finger_flex_l
      0.00250000	     -1.43954892	     -5.14527769	    -91.09019004	     -0.06246853	      0.96244811	      0.20735069	    -10.09580061	     -1.69741760	    -13.91639846	     -1.35591797	     10.48246011	     19.51510707	     -2.18337161	    -11.01356407	     -6.59188146	    -22.69571494	     -1.42842015	      3.73819054	     35.33488723	      6.20859573	    -11.70853731	      0.82751081	     -0.43656039	     12.45045587	      4.72462626	     -1.22972143	    -11.97641227	    -62.05676939	   -100.59474354	     47.60989776	     86.46347099	      8.15778275	     11.32986180	    -26.97750923	    -37.07900267	    -62.32184018	   -114.55057669	     42.91228184	     82.54794732	     -7.34233764	     11.27495696	    -16.40245666
      0.00500000	     -1.43510803	     -5.14703141	    -91.09200542	     -0.06250327	      0.96232342	      0.20728705	    -10.09557586	     -1.69733706	    -13.91652086	     -1.35588219	     10.48243516	     19.51513243	     -2.18337867	    -11.01314129	     -6.59164557	    -22.69564493	     -1.42842972	      3.73812312	     35.33483733	      6.20858763	    -11.70846939	      0.83249510	     -0.43766666	     12.45043011	      4.72455303	     -1.22967334	    -11.97712882	    -62.05471032	   -100.59422363	     47.61053731	     86.46340601	      8.15768392	     11.32972123	    -26.97758345	    -37.07918606	    -62.32208645	   -114.55040598	     42.91272522	     82.54786575	     -7.34228063	     11.27506477	    -16.40261937
      0.00750000	     -1.44755160	     -5.16829978	    -91.07935639	     -0.06239110	      0.96242059	      0.20723584	    -10.09860553	     -1.69455545	    -13.93529458	     -1.39862365	     10.48680283	     19.52098051	     -2.18342359	    -11.00716689	     -6.60146636	    -22.68126538	     -1.47175642	      3.73220316	     35.31419872	      6.20914401	    -11.74421366	      0.89892426	     -0.46571896	     12.46455712	      4.60647046	     -1.20088068	    -12.12040367	    -61.92978782	   -100.48211322	     47.98445661	     86.42487677	      8.12222377	     11.25942601	    -27.00068508	    -37.12230186	    -62.21194527	   -114.44828091	     42.96610389	     82.52105318	     -7.32247553	     11.31100028	    -16.44460447
      0.01000000	     -1.44301146	     -5.17000348	    -91.08169369	     -0.06242468	      0.96230745	      0.20718465	    -10.09769975	     -1.69438820	    -13.93542187	     -1.39814451	     10.48687346	     19.52099116	     -2.18342197	    -11.00707781	     -6.60161139	    -22.68124652	     -1.47167840	      3.73221794	     35.31412372	      6.20915013	    -11.74455377	      0.90344062	     -0.46762213	     12.46444211	      4.60607282	     -1.20081836	    -12.12103129	    -61.92762687	   -100.48206383	     47.98463530	     86.42477024	      8.12185800	     11.25944797	    -27.00083582	    -37.12261003	    -62.21221078	   -114.44783308	     42.96677349	     82.52092602	     -7.32239209	     11.31097153	    -16.44476509
      0.01250000	     -1.43891403	     -5.17171179	    -91.08412734	     -0.06244359	      0.96220835	      0.20714035	    -10.09659301	     -1.69477686	    -13.93558497	     -1.39748466	     10.48705717	     19.52096685	     -2.18340668	    -11.00686016	     -6.60129431	    -22.68120304	     -1.47162302	      3.73228848	     35.31408259	      6.20916486	    -11.74544908	      0.90880979	     -0.46951323	     12.46422352	      4.60547585	     -1.20073485	    -12.12200231	    -61.92488101	   -100.48155743	     47.98581132	     86.42458595	      8.12156894	     11.25929916	    -27.00097135	    -37.12304174	    -62.21249977	   -114.44719444	     42.96765109	     82.52078888	     -7.32226808	     11.31090441	    -16.44492744
